<?xml version="1.0" encoding="UTF-8"?>
<svg version="1.1" xmlns="http://www.w3.org/2000/svg" width="360" height="360">
<path d="M0 0 C18.88518636 16.13869207 31.88984054 35.32129698 38.03515625 59.59375 C38.26074219 60.46257812 38.48632812 61.33140625 38.71875 62.2265625 C44.3353189 88.79874363 38.76181022 117.74290068 24.46386719 140.64257812 C10.2664277 162.24592035 -9.58106438 177.28489367 -33.96484375 185.59375 C-32.71647786 191.70288359 -31.11527396 197.58296048 -29.14453125 203.49609375 C-28.88100861 204.29986954 -28.61748596 205.10364532 -28.34597778 205.93177795 C-27.51463653 208.46628462 -26.67775927 210.99890992 -25.83984375 213.53125 C-24.99527926 216.08873739 -24.15199503 218.64661768 -23.31228638 221.20570374 C-22.79218498 222.79036422 -22.26922898 224.37409124 -21.74313354 225.95677185 C-19.96484375 231.36912304 -19.96484375 231.36912304 -19.96484375 233.59375 C-19.08131226 233.57018433 -19.08131226 233.57018433 -18.17993164 233.54614258 C-15.46250348 233.483058 -12.74523014 233.44453009 -10.02734375 233.40625 C-9.10115234 233.38111328 -8.17496094 233.35597656 -7.22070312 233.33007812 C2.83781664 233.22419897 10.60964842 235.68819021 18.03515625 242.59375 C27.41002221 252.7478256 26.03515625 264.16292623 26.03515625 277.59375 C-34.68484375 277.59375 -95.40484375 277.59375 -157.96484375 277.59375 C-157.96484375 255.33059211 -157.96484375 255.33059211 -153.96484375 248.59375 C-153.61421875 247.954375 -153.26359375 247.315 -152.90234375 246.65625 C-149.16856919 240.64072432 -143.40856619 236.88027272 -136.859375 234.43359375 C-131.85271053 233.35392187 -127.12972746 233.37807196 -122.02734375 233.46875 C-121.05732422 233.47777344 -120.08730469 233.48679687 -119.08789062 233.49609375 C-116.71327968 233.51948893 -114.33919599 233.55226824 -111.96484375 233.59375 C-111.81426514 233.00271484 -111.66368652 232.41167969 -111.50854492 231.80273438 C-108.92408235 221.98195997 -105.68655089 212.37961598 -102.49975586 202.7421875 C-101.75127319 200.47517826 -101.00815535 198.20646453 -100.265625 195.9375 C-100.03442459 195.24378296 -99.80322418 194.55006592 -99.5650177 193.83532715 C-98.62625837 190.95957547 -97.96484375 188.64115963 -97.96484375 185.59375 C-98.71765625 185.33722656 -99.47046875 185.08070313 -100.24609375 184.81640625 C-115.46232331 179.33191574 -128.09799832 171.53612446 -139.96484375 160.59375 C-140.95871094 159.72169922 -140.95871094 159.72169922 -141.97265625 158.83203125 C-156.43357871 145.48090052 -165.087328 126.31393189 -169.96484375 107.59375 C-170.21105469 106.66046875 -170.45726562 105.7271875 -170.7109375 104.765625 C-176.40532377 77.90383047 -170.17260401 49.69603787 -155.96484375 26.59375 C-139.39411232 1.30681384 -115.35772359 -14.3638093 -86.12768555 -20.96875 C-56.05872261 -27.05110485 -23.980006 -18.84834927 0 0 Z " fill="#7373BE" transform="translate(245.96484375,52.40625)"/>
<path d="M0 0 C12.77832941 9.54578089 22.53413006 21.61561314 25.30078125 37.71875 C25.51151009 41.15451549 25.48587953 44.58959221 25.48828125 48.03125 C25.50052734 48.94326172 25.51277344 49.85527344 25.52539062 50.79492188 C25.5591807 66.50730505 19.03588156 80.43057118 8.30078125 91.71875 C-4.67590325 103.46505256 -19.98415949 108.28435088 -37.21875 107.96484375 C-51.97865524 106.92121409 -65.29912884 100.13443225 -75.69921875 89.71875 C-88.79522295 73.83246186 -92.11923674 57.81568036 -90.69921875 37.71875 C-88.1388535 23.05883014 -79.34113834 10.55282183 -67.76171875 1.40625 C-47.49261695 -12.77410976 -20.85456829 -13.73948028 0 0 Z " fill="#CACAFE" transform="translate(212.69921875,87.28125)"/>
<path d="M0 0 C1.94031601 -0.0076664 1.94031601 -0.0076664 3.91983032 -0.01548767 C7.45299428 -0.02882704 10.98605092 -0.02946197 14.51923513 -0.02692437 C17.47628733 -0.02585111 20.43331813 -0.03074713 23.39036572 -0.03552979 C30.37093733 -0.04660769 37.35145512 -0.04707222 44.33203125 -0.04101562 C51.51604157 -0.03497803 58.69985592 -0.04728525 65.88383281 -0.06858569 C72.06751557 -0.08624122 78.25113617 -0.0921968 84.43484318 -0.08894795 C88.12111502 -0.08714108 91.80724709 -0.08971129 95.49349594 -0.10366249 C99.60777112 -0.11865227 103.72165128 -0.1092363 107.8359375 -0.09765625 C109.04558167 -0.10529999 110.25522583 -0.11294373 111.50152588 -0.12081909 C122.08789525 -0.05509133 130.18567826 1.96346316 138.04736328 9.2746582 C147.42222924 19.4287338 146.04736328 30.84383444 146.04736328 44.2746582 C85.32736328 44.2746582 24.60736328 44.2746582 -37.95263672 44.2746582 C-37.95263672 22.01150031 -37.95263672 22.01150031 -33.95263672 15.2746582 C-33.60201172 14.6352832 -33.25138672 13.9959082 -32.89013672 13.3371582 C-28.91651133 6.93520618 -22.43114925 2.6767124 -15.21895981 0.69375038 C-10.20716958 -0.23303808 -5.07921738 -0.01036781 0 0 Z " fill="#25253F" transform="translate(125.95263671875,285.725341796875)"/>
<path d="M0 0 C4.57413105 0.4325637 9.12920696 0.86916115 13.67382812 1.55200195 C19.22531804 2.29972538 24.79663779 2.18595428 30.38818359 2.18530273 C32.49467022 2.18749445 34.60063654 2.20571024 36.70703125 2.22460938 C38.0651024 2.22754333 39.423176 2.22952811 40.78125 2.23046875 C41.99876953 2.23457764 43.21628906 2.23868652 44.47070312 2.24291992 C48.04161711 2.12168731 48.04161711 2.12168731 51.51367188 0.9855957 C55.17031999 -0.04814999 58.22072205 -0.15425624 62 0 C64.14242317 6.49414847 66.27796361 12.99053035 68.40869141 19.48852539 C69.13463883 21.69966056 69.86217128 23.91027599 70.59130859 26.12036133 C71.63794567 29.29373646 72.67890329 32.46892559 73.71875 35.64453125 C74.21091003 37.13059624 74.21091003 37.13059624 74.7130127 38.64668274 C75.01332397 39.56741074 75.31363525 40.48813873 75.62304688 41.43676758 C75.88952026 42.2472908 76.15599365 43.05781403 76.43054199 43.89289856 C77 46 77 46 77 49 C46.64 49 16.28 49 -15 49 C-12.75 38.875 -12.75 38.875 -11.57958984 35.30639648 C-11.31947113 34.50624619 -11.05935242 33.70609589 -10.79135132 32.88169861 C-10.51731476 32.05319901 -10.2432782 31.2246994 -9.9609375 30.37109375 C-9.67521881 29.49598648 -9.38950012 28.62087921 -9.09512329 27.71925354 C-8.19237753 24.9573531 -7.28379649 22.19741462 -6.375 19.4375 C-5.75742376 17.55155955 -5.14023261 15.66549294 -4.5234375 13.77929688 C-3.0200699 9.18472855 -1.51147024 4.59190886 0 0 Z " fill="#D2D2FD" transform="translate(149,238)"/>
<path d="M0 0 C7.69108683 5.50599605 12.01942006 11.05826018 15 20 C15.97575072 31.40508623 13.88098799 40.25594544 6.70703125 49.24609375 C1.9046377 54.1803608 -4.56331697 57.66222315 -11.41796875 58.3359375 C-21.89513756 58.4445092 -30.53369775 57.16185587 -38.46875 49.76953125 C-45.13626329 42.06447125 -47.45060262 33.28004848 -47.3359375 23.28125 C-46.86248666 18.65684641 -45.31198695 14.99437031 -43 11 C-42.32453125 10.98582031 -41.6490625 10.97164062 -40.953125 10.95703125 C-35.23359908 10.71653818 -35.23359908 10.71653818 -30.4375 7.875 C-28.77285074 4.54570148 -28.28980507 1.69501461 -28 -2 C-18.25899829 -5.38817451 -9.19154882 -4.87688152 0 0 Z " fill="#343481" transform="translate(196,109)"/>
<path d="M0 0 C2.86657676 3.44163471 4.65942265 7.23818791 6.4375 11.3125 C6.74316895 12.01238037 7.04883789 12.71226074 7.36376953 13.43334961 C18.05252545 38.67682643 18.14723361 67.84339127 8.3659668 93.38916016 C-2.66743722 120.37057633 -23.12834561 140.49901646 -49.48828125 152.6015625 C-55.760788 155.17066107 -61.82252869 156.74028535 -68.5390625 157.640625 C-71.12827947 157.94507926 -71.12827947 157.94507926 -74 159 C-95.47049259 160.33203039 -118.51257596 160.12263415 -138 150 C-139.670625 149.15308594 -139.670625 149.15308594 -141.375 148.2890625 C-150.23288262 143.6147471 -157.6243438 137.73561992 -165 131 C-166.03253906 130.07380859 -166.03253906 130.07380859 -167.0859375 129.12890625 C-172.14820659 124.3529646 -176.03628072 118.69334224 -180 113 C-179.505 112.01 -179.505 112.01 -179 111 C-178.11248047 111.99580078 -178.11248047 111.99580078 -177.20703125 113.01171875 C-171.27915394 119.67401523 -171.27915394 119.67401523 -165 126 C-164.46503906 126.51820313 -163.93007812 127.03640625 -163.37890625 127.5703125 C-150.46082685 139.54840691 -133.97648619 146.92712436 -117 151 C-115.89011719 151.26816528 -115.89011719 151.26816528 -114.7578125 151.54174805 C-88.26703587 157.4511075 -60.41051993 150.89485555 -37.609375 136.7890625 C-33.20048838 133.76620311 -29.07620791 130.45326584 -25 127 C-24.02546875 126.22785156 -23.0509375 125.45570313 -22.046875 124.66015625 C-4.26437381 109.806604 7.93674665 82.7434004 10 60 C11.01454274 42.59748625 10.73678202 21.65191413 1.33984375 6.28515625 C0 4 0 4 0 0 Z " fill="#575790" transform="translate(271,82)"/>
<path d="M0 0 C1.94031601 -0.0076664 1.94031601 -0.0076664 3.91983032 -0.01548767 C7.45299428 -0.02882704 10.98605092 -0.02946197 14.51923513 -0.02692437 C17.47628733 -0.02585111 20.43331813 -0.03074713 23.39036572 -0.03552979 C30.37093733 -0.04660769 37.35145512 -0.04707222 44.33203125 -0.04101562 C51.51604157 -0.03497803 58.69985592 -0.04728525 65.88383281 -0.06858569 C72.06751557 -0.08624122 78.25113617 -0.0921968 84.43484318 -0.08894795 C88.12111502 -0.08714108 91.80724709 -0.08971129 95.49349594 -0.10366249 C99.60777112 -0.11865227 103.72165128 -0.1092363 107.8359375 -0.09765625 C109.04558167 -0.10529999 110.25522583 -0.11294373 111.50152588 -0.12081909 C122.08789525 -0.05509133 130.18567826 1.96346316 138.04736328 9.2746582 C144.93425563 16.73396758 146.53326164 25.47470983 146.23486328 35.3371582 C146.22132813 36.20276367 146.20779297 37.06836914 146.19384766 37.96020508 C146.15895658 40.06529994 146.10516993 42.17006794 146.04736328 44.2746582 C143.07736328 44.2746582 140.10736328 44.2746582 137.04736328 44.2746582 C136.88880859 43.15188477 136.73025391 42.02911133 136.56689453 40.87231445 C134.96198315 30.25903786 133.39787661 21.76294654 124.98486328 14.3996582 C116.1253656 8.21947467 105.72445614 7.83098614 95.24560547 7.90234375 C94.0277536 7.89869308 92.80990173 7.89504242 91.55514526 7.89128113 C88.25363518 7.88462113 84.95250203 7.89120303 81.65102291 7.90461326 C78.17679309 7.91603819 74.70257576 7.91181206 71.22833252 7.90986633 C65.40168395 7.90898728 59.5751526 7.9199857 53.74853516 7.93847656 C47.02965147 7.95967806 40.31093877 7.96314327 33.59202838 7.9569146 C27.09934677 7.95120594 20.60672482 7.95688172 14.11405182 7.96808815 C11.36305885 7.97271022 8.61210265 7.97361848 5.86110687 7.9715023 C2.01785493 7.96925628 -1.82523667 7.98377788 -5.66845703 8 C-6.79903534 7.99752258 -7.92961365 7.99504517 -9.0944519 7.99249268 C-13.72888306 8.0236493 -17.9847306 8.12630323 -22.47039795 9.35432434 C-25.85104999 10.24780947 -26.80371545 10.25963836 -29.95263672 9.2746582 C-28.4410971 8.13720183 -26.91786029 7.01528346 -25.39013672 5.8996582 C-24.54322266 5.27317383 -23.69630859 4.64668945 -22.82373047 4.0012207 C-15.55435123 -0.37029715 -8.26405333 -0.01686877 0 0 Z " fill="#1C1C30" transform="translate(125.95263671875,285.725341796875)"/>
<path d="M0 0 C2.9733219 0.73134127 4.80806451 2.34712701 6.9375 4.4765625 C5.78533766 7.93304953 4.97225236 8.40494777 2.0625 10.4140625 C-0.93539751 12.48825358 -2.99359849 14.46429395 -5.0625 17.4765625 C-6.9375 17.1640625 -6.9375 17.1640625 -9.0625 16.4765625 C-11.57500583 12.70780375 -11.59266086 10.94506116 -11.0625 6.4765625 C-8.10579236 1.39472124 -5.74471976 -0.41344574 0 0 Z " fill="#E5E5FE" transform="translate(160.0625,101.5234375)"/>
<path d="M0 0 C2.875 1.625 2.875 1.625 5 4 C5.625 6.9375 5.625 6.9375 5 10 C2.51397551 13.36344489 1.08574477 14.80057749 -3.0625 15.5625 C-6 15 -6 15 -8.375 13.5 C-10.82483134 9.73102871 -10.5659239 7.45665069 -10 3 C-7.20219998 -0.44344618 -4.25472272 -0.60781753 0 0 Z " fill="#F70306" transform="translate(181,37)"/>
<path d="M0 0 C0.47935012 4.02654103 0.10954733 5.80917562 -1.9375 9.375 C-3.74038211 11.3758865 -4.64868894 11.94360224 -7.3359375 12.375 C-9.58835827 12.375 -11.76399238 12.26305972 -14 12 C-11.55873638 7.11747276 -6.0249999 0 0 0 Z " fill="#9E9EC3" transform="translate(168,108)"/>
<path d="M0 0 C3.0625 0.1875 3.0625 0.1875 5.0625 2.1875 C4.6875 5.3125 4.6875 5.3125 4.0625 8.1875 C1.1875 8.8125 1.1875 8.8125 -1.9375 9.1875 C-3.9375 7.1875 -3.9375 7.1875 -4.125 4.125 C-3.8775 0.2475 -3.8775 0.2475 0 0 Z " fill="#9999C0" transform="translate(162.9375,123.8125)"/>
<path d="M0 0 C0.99 0.33 1.98 0.66 3 1 C4.89470816 1.0685495 6.7916834 1.08480372 8.6875 1.0625 C9.68136719 1.05347656 10.67523438 1.04445312 11.69921875 1.03515625 C12.45847656 1.02355469 13.21773437 1.01195312 14 1 C11.73943528 3.7822335 10.5944274 4.90092877 7 5.5 C3.39330003 4.89888334 2.2313189 3.83205861 0 1 C0 0.67 0 0.34 0 0 Z " fill="#BF080D" transform="translate(171,47)"/>
</svg>
